<svg xmlns="http://www.w3.org/2000/svg" viewBox="0 0 58 58"><defs><style>.cls-1{fill:#ff1f27;}</style></defs><title>icon-3</title><g id="Слой_2" data-name="Слой 2"><g id="UI"><path class="cls-1" d="M29,0A29,29,0,1,0,58,29,29,29,0,0,0,29,0Zm0,56A27,27,0,1,1,56,29,27,27,0,0,1,29,56Z"/><path class="cls-1" d="M44.29,39.41H34.88V37.65h9.41v1.76Zm0,1.76H34.88v-.59h9.41v.59Zm0,2.94H34.88V42.35h9.41v1.76Zm-22.93,0V38.38a6.07,6.07,0,0,0,.59-.63,6.07,6.07,0,0,0,.59.63v5.73ZM12.54,33.87a4.92,4.92,0,0,1,3.33-4.72.59.59,0,0,0,.23-1,4.19,4.19,0,0,1-1.25-3,4.09,4.09,0,0,1,4-4.16.61.61,0,0,0,.59-.32.59.59,0,0,0-.05-.61,3.41,3.41,0,0,1-.67-2,3.26,3.26,0,1,1,6.51,0,3.41,3.41,0,0,1-.67,2,.58.58,0,0,0,0,.61A.6.6,0,0,0,25,21a4.1,4.1,0,0,1,4,4.16,4.19,4.19,0,0,1-1.25,3,.59.59,0,0,0,.23,1,5,5,0,0,1-1.46,9.67,4.71,4.71,0,0,1-4-2.18l3.87-3.87a.59.59,0,0,0-.83-.83l-3.11,3.11v-6L25.3,26.3a.59.59,0,0,0-.83-.83l-1.94,1.94v-2.7a.59.59,0,1,0-1.18,0v2.7l-1.94-1.94a.59.59,0,0,0-.83.83l2.77,2.77v6l-3.11-3.11a.59.59,0,0,0-.83.83l3.87,3.87a4.71,4.71,0,0,1-4,2.18,4.88,4.88,0,0,1-4.79-5ZM14.3,18.24a1.76,1.76,0,1,1,0-3.53.59.59,0,0,0,.59-.59,2.93,2.93,0,0,1,5.83-.45A4.54,4.54,0,0,0,17.51,18c0,.07,0,.14,0,.2Zm31.75,19.4a.59.59,0,0,0,0-1.18h-.59a.59.59,0,0,0-1.18,0H34.88a.59.59,0,0,0-1.18,0h-.59a.59.59,0,1,0,0,1.18h.59v1.76h-.59a.59.59,0,1,0,0,1.18h.59v.59h-.59a.59.59,0,1,0,0,1.18h.59v1.76h-10V39.25a5.81,5.81,0,0,0,2.85.75,6.06,6.06,0,0,0,6-6.13,6.12,6.12,0,0,0-3.35-5.51,5.37,5.37,0,0,0,1-3.2A5.31,5.31,0,0,0,26,19.92a4.55,4.55,0,0,0-4-6.42h-.05a4.11,4.11,0,0,0-8.15.09,2.94,2.94,0,0,0,.55,5.83h3.43a4.56,4.56,0,0,0,.19.5,5.31,5.31,0,0,0-4.25,5.25,5.37,5.37,0,0,0,1,3.2,6.12,6.12,0,0,0-3.35,5.51,6.06,6.06,0,0,0,6,6.13,5.81,5.81,0,0,0,2.85-.75v4.86H11.95a.59.59,0,1,0,0,1.18h34.1a.59.59,0,0,0,0-1.18h-.59V42.35h.59a.59.59,0,0,0,0-1.18h-.59v-.59h.59a.59.59,0,0,0,0-1.18h-.59V37.65Z"/><path class="cls-1" d="M46.05,45.54H11.95a.84.84,0,1,1,0-1.68h8v-4.2a6.08,6.08,0,0,1-2.6.59,6.41,6.41,0,0,1-3-12,5.65,5.65,0,0,1-.93-3.11,5.57,5.57,0,0,1,4.16-5.42l0-.07H14.3a3.19,3.19,0,0,1-.77-6.29,4.39,4.39,0,0,1,4.25-3.62h0a4.39,4.39,0,0,1,4.28,3.49,4.79,4.79,0,0,1,4.21,6.49,5.57,5.57,0,0,1,4.16,5.42,5.65,5.65,0,0,1-.93,3.11,6.41,6.41,0,0,1-3,12,6.08,6.08,0,0,1-2.6-.59v4.2h9.5V42.6h-.34a.84.84,0,1,1,0-1.68h.34v-.09h-.34a.84.84,0,1,1,0-1.68h.34V37.9h-.34a.84.84,0,1,1,0-1.68h.38a.84.84,0,0,1,1.6,0h9a.84.84,0,0,1,1.6,0h.38a.84.84,0,1,1,0,1.68h-.34v1.26h.34a.84.84,0,1,1,0,1.68h-.34v.09h.34a.84.84,0,1,1,0,1.68h-.34v1.26h.34a.84.84,0,1,1,0,1.68Zm-34.1-1.18a.34.34,0,1,0,0,.68h34.1a.34.34,0,1,0,0-.68h-.84V42.1h.84a.34.34,0,1,0,0-.68h-.84V40.34h.84a.34.34,0,1,0,0-.68h-.84V37.4h.84a.34.34,0,1,0,0-.68h-.84v-.25a.34.34,0,0,0-.68,0v.25H34.63v-.25a.34.34,0,0,0-.68,0v.25h-.84a.34.34,0,1,0,0,.68H34v2.26h-.84a.34.34,0,1,0,0,.68H34v1.09h-.84a.34.34,0,1,0,0,.68H34v2.26H23.46V38.82l.37.21a5.58,5.58,0,0,0,2.73.72,5.91,5.91,0,0,0,2.51-11.16l-.26-.13.17-.24a5.15,5.15,0,0,0,1-3.05,5.07,5.07,0,0,0-4-5l-.31-.06.13-.29a4.3,4.3,0,0,0-3.81-6.07h-.21l-.08-.21a3.88,3.88,0,0,0-3.82-3.27h0A3.88,3.88,0,0,0,14,13.62l0,.18-.18,0a2.69,2.69,0,0,0,.51,5.33h3.61l.05.17a4.27,4.27,0,0,0,.18.47l.13.29-.31.06a5.07,5.07,0,0,0-4,5,5.15,5.15,0,0,0,1,3.05l.17.24-.26.13a5.91,5.91,0,0,0,2.51,11.16A5.58,5.58,0,0,0,20.06,39l.37-.21v5.54Zm32.59,0H34.63V42.1h9.91Zm-9.41-.5H44V42.6H35.13Zm-12.35.5H21.11V38.28l.08-.07a5.79,5.79,0,0,0,.56-.61l.19-.24.19.24a5.92,5.92,0,0,0,.56.61l.08.07Zm-1.18-.5h.68V38.49l-.34-.35-.34.35Zm22.93-2.44H34.63V40.34h9.91Zm-9.41-.5H44v-.09H35.13Zm9.41-1.26H34.63V37.4h9.91Zm-9.41-.5H44V37.9H35.13Zm-17.8-.09a5.23,5.23,0,0,1-1.54-10.16.34.34,0,0,0,.23-.25.33.33,0,0,0-.09-.32,4.47,4.47,0,0,1-1.33-3.19,4.36,4.36,0,0,1,4.22-4.41.39.39,0,0,0,.38-.19.33.33,0,0,0,0-.35A3.68,3.68,0,0,1,18.44,18a3.51,3.51,0,1,1,7,0,3.68,3.68,0,0,1-.72,2.17.33.33,0,0,0,0,.35.35.35,0,0,0,.31.19,4.36,4.36,0,0,1,4.28,4.42A4.46,4.46,0,0,1,28,28.35a.33.33,0,0,0-.09.32.34.34,0,0,0,.22.24,5.23,5.23,0,0,1-1.53,10.16,4.94,4.94,0,0,1-4.17-2.3l-.11-.17,4-4a.34.34,0,0,0-.48-.48l-3.54,3.54V29l2.84-2.84a.34.34,0,0,0-.48-.48L22.28,28v-3.3a.34.34,0,1,0-.68,0V28l-2.36-2.36a.34.34,0,0,0-.48.48L21.61,29v6.69l-3.54-3.54a.34.34,0,0,0-.48.48l4,4-.11.17A4.94,4.94,0,0,1,17.33,39.07ZM18.8,21.25a3.86,3.86,0,0,0-3.71,3.91A4,4,0,0,0,16.27,28a.84.84,0,0,1-.32,1.39,4.66,4.66,0,0,0-3.16,4.48h0a4.64,4.64,0,0,0,4.55,4.7A4.44,4.44,0,0,0,21,36.67l-3.73-3.73a.84.84,0,0,1,1.18-1.19l2.69,2.69V29.17l-2.69-2.69a.84.84,0,0,1,1.18-1.19l1.51,1.51V24.71a.84.84,0,1,1,1.68,0V26.8l1.51-1.51a.84.84,0,0,1,1.19,1.18l-2.7,2.7v5.27l2.69-2.69a.84.84,0,0,1,1.19,1.18l-3.73,3.73a4.44,4.44,0,0,0,3.63,1.9,4.73,4.73,0,0,0,1.38-9.18.84.84,0,0,1-.55-.6.83.83,0,0,1,.23-.79,4,4,0,0,0,1.18-2.83A3.86,3.86,0,0,0,25,21.25a.85.85,0,0,1-.75-.46.83.83,0,0,1,.06-.87A3.19,3.19,0,0,0,25,18a3,3,0,1,0-6,0,3.18,3.18,0,0,0,.62,1.88.83.83,0,0,1,.07.88A.85.85,0,0,1,18.8,21.25Zm-1-2.76H14.3a2,2,0,1,1,0-4,.34.34,0,0,0,.24-.1.33.33,0,0,0,.1-.24A3.18,3.18,0,0,1,21,13.63l0,.21-.21.06a4.31,4.31,0,0,0-3,4.13s0,.07,0,.11Zm0-7.06h-.21a2.7,2.7,0,0,0-2.48,2.68.83.83,0,0,1-.25.59.84.84,0,0,1-.59.25,1.51,1.51,0,1,0,0,3h3a4.82,4.82,0,0,1,3.17-4.49A2.7,2.7,0,0,0,17.82,11.44Z"/><path class="cls-1" d="M43.7,23.53H36.64a1.76,1.76,0,1,1,0-3.53.59.59,0,0,0,.59-.59,2.94,2.94,0,1,1,5.88,0,.59.59,0,0,0,.59.59,1.76,1.76,0,1,1,0,3.53Zm.55-4.65a4.12,4.12,0,0,0-8.16,0,2.94,2.94,0,0,0,.55,5.83H43.7a2.94,2.94,0,0,0,.55-5.83Z"/><path class="cls-1" d="M43.7,25H36.64a3.19,3.19,0,0,1-.77-6.28,4.37,4.37,0,0,1,8.6,0A3.19,3.19,0,0,1,43.7,25Zm-3.53-9.41a3.88,3.88,0,0,0-3.83,3.36l0,.18-.18,0a2.69,2.69,0,0,0,.51,5.33H43.7a2.69,2.69,0,0,0,.51-5.33l-.18,0,0-.18A3.88,3.88,0,0,0,40.17,15.55Zm3.53,8.23H36.64a2,2,0,1,1,0-4,.34.34,0,0,0,.34-.34,3.19,3.19,0,1,1,6.38,0,.34.34,0,0,0,.1.24.34.34,0,0,0,.24.1,2,2,0,1,1,0,4Zm-3.53-7.06a2.69,2.69,0,0,0-2.69,2.69.84.84,0,0,1-.84.84,1.51,1.51,0,1,0,0,3H43.7a1.51,1.51,0,1,0,0-3,.83.83,0,0,1-.59-.25.84.84,0,0,1-.25-.59A2.69,2.69,0,0,0,40.17,16.73Z"/></g></g></svg>