<svg xmlns="http://www.w3.org/2000/svg" viewBox="0 0 58 58"><defs><style>.cls-1{fill:#ff1f27;}</style></defs><title>icon-4</title><g id="Слой_2" data-name="Слой 2"><g id="UI"><path class="cls-1" d="M29,0A29,29,0,1,0,58,29,29,29,0,0,0,29,0Zm0,56A27,27,0,1,1,56,29,27,27,0,0,1,29,56Z"/><path class="cls-1" d="M14.68,34v1.4A2.12,2.12,0,0,0,16.8,37.5h4.72a1,1,0,0,0,.26,0l1.66-.41a1.06,1.06,0,0,0,.72-.62h1.68a1.06,1.06,0,0,0,.92-.53H32a2.38,2.38,0,0,0,1.5.54h.18l.19,0,.07,0,.84-.28A4.17,4.17,0,0,1,37,36v1.5a.53.53,0,0,0-.5.36l-.2.59L35,39.64l-.75.75a1.59,1.59,0,0,0,0,2.25l2,2a1.06,1.06,0,0,0,.75.32,1.07,1.07,0,0,0,.41-.08,1.06,1.06,0,0,0,.65-1V42.14a.53.53,0,0,0-.15-.38l-.25-.25.31-.31h1.83l.28.28-.27.27a.53.53,0,0,0-.16.38v1.73a1.06,1.06,0,0,0,.65,1,1.05,1.05,0,0,0,1.16-.23l2-2a1.59,1.59,0,0,0,0-2.25l-.77-.77-1.33-1.22-.17-.52a.53.53,0,0,0-.47-.36v-2A2.36,2.36,0,0,0,41.23,34a2.39,2.39,0,0,0-2.39-2.39h-.33l-.11,0-.84.28a4.44,4.44,0,0,1-2.77,0L34,31.69l-.07,0-.19,0h-.18a2.4,2.4,0,0,0-2,1.06H26.89a1.06,1.06,0,0,0-1.06-1.06H24.15a1,1,0,0,0-.72-.62l-1-.26L32.52,23.3l0,0a3.14,3.14,0,0,0,1-3.83h1.35a1.06,1.06,0,0,0,1.06-1.06V17.22a1.59,1.59,0,0,0,1-1h1A1.59,1.59,0,0,0,39.44,15l.17-.66a1.06,1.06,0,0,0-1-1.32H22.8a1.06,1.06,0,0,0-1,1.32l.17.66a1.59,1.59,0,0,0,1.55,1.21h.86a1.59,1.59,0,0,0,.48.68,60.83,60.83,0,0,1-5.12,3.91c-7.13,4.94-7.13,8.3-7.13,10.53A2.49,2.49,0,0,0,14.68,34ZM30,23.87l-9.11,6.72H20.5a2.61,2.61,0,0,0-2-2.33l9-7.6s0,.06,0,.09A3.19,3.19,0,0,0,30,23.87ZM16.74,29.72A1.59,1.59,0,0,1,19,32a1.63,1.63,0,0,1-2.25,0,1.59,1.59,0,0,1,0-2.25ZM39.92,40.15H37.74l-.67-.67.3-.92h2.92l.31.92ZM38,37.5v-1.2l.37.12.06,0,.19,0h.18a2.39,2.39,0,0,0,.8-.15v1.2ZM37,43.87l-2-2a.53.53,0,0,1,0-.75l.74-.74.38-.36.74.74L36.7,41a.8.8,0,0,0,0,1.12l.28.28Zm5.72-2.74a.53.53,0,0,1,0,.75l-2,2V42.36l.31-.31a.8.8,0,0,0,0-1.12l-.18-.18.74-.74.39.35Zm-9.17-8.4h.15l.78.27a5.5,5.5,0,0,0,3.44,0l.77-.26h.16A1.33,1.33,0,0,1,39.79,35a1.31,1.31,0,0,1-.95.4h-.15l-.77-.25-.25-.07a5.2,5.2,0,0,0-1.48-.21,5.31,5.31,0,0,0-1.72.28l-.78.26h-.16a1.33,1.33,0,0,1-1.1-.58,1.31,1.31,0,0,1-.23-.74,1.25,1.25,0,0,1,.13-.57,1.33,1.33,0,0,1,1.19-.75Zm-2.37,1.06a2.33,2.33,0,0,0,.12,1.06H26.89V33.78Zm-5.33,1.59H24.24V32.72h1.59Zm-4.31-3.72,1.66.41v4l-1.66.41H16.8a1.06,1.06,0,0,1-1.06-1.06V32.42a2.7,2.7,0,0,0,.25.3,2.64,2.64,0,0,0,3.69.05h0l1.52-1.12Zm11.22-10.9a2.12,2.12,0,0,1-.94,1.76,2.08,2.08,0,0,1-1.19.36,2.12,2.12,0,0,1-2.12-2.12A2.08,2.08,0,0,1,29,19.44h3.31a2.08,2.08,0,0,1,.47,1.31Zm2.12-2.37h-8.5V17.32h8.5Zm2.27-4.25h1.44l-.17.66a.53.53,0,0,1-.52.4h-.76Zm-1.21,1.59a.53.53,0,0,1-.53.53H25.83a.53.53,0,0,1-.53-.53V14.13H35.92Zm-13-.93-.17-.66h1.45v1.06h-.76a.53.53,0,0,1-.52-.4Zm-2.67,6.93c2-1.36,3.65-2.64,5-3.8v.46a1.06,1.06,0,0,0,1.06,1.06h.87l-11,9.3-.23.19,0,0,0,0a2.63,2.63,0,0,0-.77,1.77,1.06,1.06,0,0,0-.54.92v1.23a1.42,1.42,0,0,1-1.06-1.51c0-2,0-5,6.67-9.65Zm0,0"/><path class="cls-1" d="M40.7,45.18a1.32,1.32,0,0,1-1.31-1.31V42.14a.79.79,0,0,1,.23-.55l.1-.1,0,0H38.06l-.06.06.07.07a.79.79,0,0,1,.23.55v1.73a1.3,1.3,0,0,1-.81,1.21,1.34,1.34,0,0,1-1.43-.29l-2-2a1.85,1.85,0,0,1,0-2.6l.75-.75,1.23-1.16.18-.53a.78.78,0,0,1,.49-.49V36.21a3.93,3.93,0,0,0-1.85.17l-.85.28-.1,0a1,1,0,0,1-.23,0h-.08l-.1-.25v.25a2.64,2.64,0,0,1-1.59-.54H26.88a1.31,1.31,0,0,1-1,.53H24.31a1.31,1.31,0,0,1-.81.61l-1.65.41a1.25,1.25,0,0,1-.32,0H16.8a2.38,2.38,0,0,1-2.37-2.37V34.18a2.73,2.73,0,0,1-2.12-2.82c0-2.26,0-5.71,7.24-10.72a60.88,60.88,0,0,0,4.9-3.72,1.86,1.86,0,0,1-.27-.42h-.69a1.84,1.84,0,0,1-1.79-1.4l-.17-.66a1.31,1.31,0,0,1,1.27-1.63H38.58a1.31,1.31,0,0,1,1.27,1.63l-.17.66a1.84,1.84,0,0,1-1.79,1.4h-.84a1.83,1.83,0,0,1-.88.88v1a1.31,1.31,0,0,1-1.31,1.31h-1a3.41,3.41,0,0,1-1.17,3.78L23,30.66l.53.13a1.3,1.3,0,0,1,.81.61h1.52a1.31,1.31,0,0,1,1.29,1.06h4.3a2.65,2.65,0,0,1,2.11-1.06h.17a1,1,0,0,1,.24,0l.1,0,.84.28a4.17,4.17,0,0,0,2.61,0l.83-.28.17,0h.35A2.63,2.63,0,0,1,41,35.62V37.3a.77.77,0,0,1,.46.48l.15.46,1.28,1.17.78.78a1.85,1.85,0,0,1,0,2.6l-2,2A1.31,1.31,0,0,1,40.7,45.18ZM37.85,41h2l.53.53-.45.45a.28.28,0,0,0-.08.2v1.73a.8.8,0,0,0,.5.75.81.81,0,0,0,.89-.17l2-2a1.35,1.35,0,0,0,0-1.9l-.77-.77-1.37-1.25-.19-.58a.28.28,0,0,0-.25-.19h-.24V35.45l.06-.07A2.11,2.11,0,0,0,41,34a2.14,2.14,0,0,0-2.14-2.14h-.3l-.89.29a4.65,4.65,0,0,1-2.92,0l-.84-.28a.51.51,0,0,0-.17,0h-.18a2.15,2.15,0,0,0-1.78.95l-.07.11h-5v-.25a.81.81,0,0,0-.81-.81H24l-.06-.15a.8.8,0,0,0-.55-.47l-1.56-.39L32.37,23.1a2.93,2.93,0,0,0,.91-3.56l-.17-.36h1.75a.81.81,0,0,0,.81-.81V17l.17-.06a1.34,1.34,0,0,0,.81-.81l.06-.17H37.9a1.34,1.34,0,0,0,1.3-1l.17-.66a.81.81,0,0,0-.79-1H22.8a.82.82,0,0,0-.64.31.81.81,0,0,0-.15.7l.17.66a1.34,1.34,0,0,0,1.3,1h1l.06.17a1.33,1.33,0,0,0,.4.58l.23.19-.23.19a61.43,61.43,0,0,1-5.15,3.92c-7,4.86-7,8.15-7,10.32a2.23,2.23,0,0,0,1.91,2.35l.21,0v1.61a1.88,1.88,0,0,0,1.87,1.88h4.72l.19,0,1.66-.41a.81.81,0,0,0,.55-.47l.06-.15h1.85a.81.81,0,0,0,.7-.41l.07-.12h5.52l.07.06a2.14,2.14,0,0,0,1.34.48h.32l.88-.29A4.42,4.42,0,0,1,37,35.75l.2,0v2H37a.28.28,0,0,0-.26.19l-.26.69-1.27,1.19-.75.75a1.35,1.35,0,0,0,0,1.9l2,2a.83.83,0,0,0,.89.18.8.8,0,0,0,.5-.75V42.14a.28.28,0,0,0-.08-.2l-.42-.42Zm2.6,3.51V42.26l.38-.38a.55.55,0,0,0,0-.77l-.36-.36,1.08-1.08.56.52.77.76a.78.78,0,0,1,0,1.1Zm.5-2v.8l1.57-1.57a.28.28,0,0,0,0-.39l-1-.94-.39.39h0a1,1,0,0,1,0,1.48Zm-3.72,2-2.4-2.4a.78.78,0,0,1,0-1.1l1.31-1.27,1.09,1.09-.35.36a.55.55,0,0,0,0,.76l.35.35Zm-1.1-4.07-.2.19-.74.74a.28.28,0,0,0,0,.39l1.54,1.54v-.79l-.21-.21a1,1,0,0,1,0-1.46h0Zm3.89,0H37.64l-.86-.86.41-1.24h3.28l.41,1.24Zm-2.18-.5h2l.49-.49-.2-.6H37.55l-.2.6Zm2-2.15H37.8v-1.8l.69.23.17,0h.17a2.16,2.16,0,0,0,.72-.13l.34-.12Zm-1.59-.5h1.09v-.62a2.67,2.67,0,0,1-.54.06h-.18a.61.61,0,0,1-.24,0l-.1,0h0ZM16.8,36.68a1.31,1.31,0,0,1-1.31-1.31V31.63l.45.65a2.35,2.35,0,0,0,.22.27,2.38,2.38,0,0,0,3.33,0l.07,0,1.55-1.14h.46l1.85.46v4.34l-1.85.46ZM16,33.07v2.31a.81.81,0,0,0,.81.81h4.72l1.41-.36V32.26l-1.44-.36h-.21L19.83,33A2.87,2.87,0,0,1,16,33.07Zm22.66,2.57-.82-.27-.23-.07a4.5,4.5,0,0,0-1.42-.21h0a5,5,0,0,0-1.62.27l-.86.27h-.11a1.61,1.61,0,0,1-1.35-.7A1.55,1.55,0,0,1,32,34a1.49,1.49,0,0,1,.16-.69,1.58,1.58,0,0,1,1.41-.89h.19l.83.28a5.21,5.21,0,0,0,3.28,0l.82-.28h.2a1.58,1.58,0,0,1,0,3.16h-.2Zm-5-2.67h-.12a1.08,1.08,0,0,0-1,.61,1,1,0,0,0-.11.46,1.06,1.06,0,0,0,.18.61,1.08,1.08,0,0,0,.89.47h.08l0,.25V35.3l-.05-.16.78-.26a5.88,5.88,0,0,1,1.8-.29h0a5.46,5.46,0,0,1,1.54.22l.27.08.72.24h.11a1.2,1.2,0,0,0,.78-.32A1.08,1.08,0,0,0,38.85,33h-.13l-.73.25a5.7,5.7,0,0,1-3.59,0Zm-7.57,2.66H24V32.47h2.09Zm-1.59-.5h1.09V33H24.49Zm7.15,0h-5V33.53h4.79l0,.28a2.08,2.08,0,0,0,.11.95Zm-4.49-.5H31a2.59,2.59,0,0,1-.06-.56H27.14ZM14.93,33.21l-.31-.08a1.67,1.67,0,0,1-1.25-1.78c0-2,0-5.14,6.78-9.83h0c2-1.36,3.63-2.63,5-3.79l.41-.35v1a.81.81,0,0,0,.81.81h1.55L16.18,29.12a2.39,2.39,0,0,0-.71,1.62v.14l-.12.07a.81.81,0,0,0-.41.7ZM25.05,18.45c-1.29,1.08-2.84,2.24-4.62,3.47h0c-6.57,4.55-6.57,7.5-6.57,9.45a1.19,1.19,0,0,0,.56,1.14v-.86A1.31,1.31,0,0,1,15,30.59a2.87,2.87,0,0,1,.83-1.8l0,0,.23-.19,10.46-8.86h-.19A1.31,1.31,0,0,1,25.05,18.45ZM17.87,32.67a1.87,1.87,0,0,1-1.3-.52A1.83,1.83,0,0,1,16,30.85a1.86,1.86,0,0,1,.44-1.2h0l.1-.1a1.83,1.83,0,0,1,1.3-.54h0a1.84,1.84,0,0,1,1.3,3.15A1.89,1.89,0,0,1,17.87,32.67ZM17,29.85l0,0a1.35,1.35,0,0,0-.39,1,1.33,1.33,0,0,0,.39,1,1.38,1.38,0,0,0,1.9,0,1.34,1.34,0,0,0-1-2.29h0A1.33,1.33,0,0,0,17,29.85Zm4,1h-.67l0-.23a2.35,2.35,0,0,0-1.84-2.11l-.49-.11,9.77-8.27v.62A3,3,0,0,0,30,23.63l.55.12Zm-.21-.5h.05L29.41,24a3.46,3.46,0,0,1-2.2-2.79l-8.24,7A2.84,2.84,0,0,1,20.72,30.34Zm9.91-7.22h0a2.38,2.38,0,0,1-2.37-2.37,2.34,2.34,0,0,1,.53-1.47l.08-.09h3.55l.07.09A2.34,2.34,0,0,1,33,20.75h0a2.36,2.36,0,0,1-1,2A2.31,2.31,0,0,1,30.63,23.13Zm-1.55-3.44a1.84,1.84,0,0,0-.34,1.06,1.88,1.88,0,0,0,1.87,1.87h0a1.82,1.82,0,0,0,1-.32,1.87,1.87,0,0,0,.83-1.55,1.84,1.84,0,0,0-.34-1.06Zm6-1.06h-9V17.07h9Zm-8.5-.5h8v-.56h-8Zm8.78-1.62H25.83a.78.78,0,0,1-.78-.78V13.88H36.17v1.84A.78.78,0,0,1,35.39,16.5Zm-9.84-2.12v1.34a.28.28,0,0,0,.28.28h9.56a.28.28,0,0,0,.28-.28V14.38ZM37.9,15.44h-1V13.88h2l-.24,1A.78.78,0,0,1,37.9,15.44Zm-.51-.5h.51a.28.28,0,0,0,.27-.21l.09-.35h-.87Zm-12.89.5h-1a.78.78,0,0,1-.76-.59h0l-.24-1h2Zm-1.29-.71a.28.28,0,0,0,.27.21H24v-.56h-.87Z"/></g></g></svg>