<svg xmlns="http://www.w3.org/2000/svg" viewBox="0 0 58 58"><defs><style>.cls-1{fill:#ff1f27;}</style></defs><title>icon-2</title><g id="Слой_2" data-name="Слой 2"><g id="UI"><path class="cls-1" d="M29,0A29,29,0,1,0,58,29,29,29,0,0,0,29,0Zm0,56A27,27,0,1,1,56,29,27,27,0,0,1,29,56Zm7.93-29.65a.91.91,0,0,0-1.22,0c-.33.31-8.14,7.57-8.14,14.37,0,4.48,3.92,8.12,8.75,8.12s8.75-3.64,8.75-8.12C45.07,33.92,37.26,26.65,36.93,26.35Zm6.33,14.37c0,3.48-3.11,6.31-6.94,6.31s-6.94-2.83-6.94-6.31c0-5,5.1-10.58,6.94-12.44C38.17,30.14,43.26,35.75,43.26,40.72Zm-13.07,0a.9.9,0,1,1,1.81,0c0,2,1.94,3.67,4.33,3.67a.9.9,0,0,1,0,1.81C32.94,46.22,30.19,43.76,30.19,40.74ZM21.24,9.35a.91.91,0,0,0-1.22,0c-.33.31-8.14,7.55-8.14,14.37,0,4.48,3.92,8.12,8.75,8.12s8.75-3.64,8.75-8.12C29.38,16.89,21.57,9.65,21.24,9.35Zm6.33,14.37c0,3.48-3.11,6.31-6.94,6.31s-6.94-2.83-6.94-6.31c0-5,5.1-10.58,6.94-12.44C22.48,13.14,27.57,18.75,27.57,23.72Zm-13.07,0a.9.9,0,1,1,1.81,0c0,2,1.94,3.67,4.33,3.67a.9.9,0,0,1,0,1.81C17.25,29.22,14.5,26.76,14.5,23.74Zm19.19,0V13.94a1,1,0,0,1,2,0v9.81a1,1,0,0,1-2,0Zm0-12.42v-.65a1,1,0,0,1,2,0v.65a1,1,0,0,1-2,0Zm6,12.42V13.94c0-.5,0-.9.5-.9s.5.41.5.9v9.81c0,.5,0,.9-.5.9S39.68,24.24,39.68,23.74Zm0-12.42v-.65c0-.5,0-.9.5-.9s.5.41.5.9v.65c0,.5,0,.9-.5.9S39.68,11.82,39.68,11.32Zm-3,4.58V12a1,1,0,0,1,2,0V15.9a1,1,0,0,1-2,0Zm0,6.54V18.51a1,1,0,0,1,2,0v3.92a1,1,0,0,1-2,0Zm-5-6.54V12a1,1,0,0,1,2,0V15.9a1,1,0,0,1-2,0Zm0,6.54V18.51a1,1,0,0,1,2,0v3.92a1,1,0,0,1-2,0Zm-12,15.69v9.81a1,1,0,0,1-2,0V38.12a1,1,0,0,1,2,0Zm0-3.27v.65a1,1,0,0,1-2,0v-.65a1,1,0,0,1,2,0Zm5,3.27v9.81a1,1,0,0,1-2,0V38.12a1,1,0,0,1,2,0Zm0-3.27v.65a1,1,0,0,1-2,0v-.65a1,1,0,0,1,2,0Zm-2,1.31v3.92a1,1,0,0,1-2,0V36.16a1,1,0,0,1,2,0Zm0,6.54v3.92a1,1,0,0,1-2,0V42.7a1,1,0,0,1,2,0Zm-6-6.54v3.92a1,1,0,0,1-2,0V36.16a1,1,0,0,1,2,0Zm0,6.54v3.92a1,1,0,0,1-2,0V42.7a1,1,0,0,1,2,0Z"/></g></g></svg>