<svg xmlns="http://www.w3.org/2000/svg" viewBox="0 0 58 58"><defs><style>.cls-1{fill:#ff1f27;}</style></defs><title>icon-2_1</title><g id="Слой_2" data-name="Слой 2"><g id="UI"><path class="cls-1" d="M29,58A29,29,0,1,1,58,29,29,29,0,0,1,29,58ZM29,2A27,27,0,1,0,56,29,27,27,0,0,0,29,2Z"/><path class="cls-1" d="M9.89,32.51l1.29,1.29,3.92-3.92h2.11l-3.94,3.94,1.29,1.29,5.24-5.24H27l-7,7H13.83v1.83h4.36l-3.67,3.67,1.29,1.29L19.49,40v4.36h1.83V38.14l7-7v7.18L23,43.6l1.29,1.29,3.94-3.94v2.11L24.36,47l1.29,1.29,2.63-2.63v3.44h1.83V45.64l2.63,2.63L34,47l-3.92-3.92V40.95L34,44.89l1.29-1.29-5.24-5.24V31.18l7,7v6.19H38.9V40l3.67,3.67,1.29-1.29-3.67-3.67h4.36V36.85H38.36l-7-7h7.18l5.24,5.24,1.29-1.29-3.94-3.94h2.11l3.92,3.92,1.29-1.29-2.63-2.63H49.3V28.06H45.86l2.63-2.63L47.2,24.14l-3.92,3.92H41.17l3.94-3.94-1.29-1.29-5.24,5.24H31.4l7-7h6.19V19.27H40.19l2.95-2.95L41.84,15,38.9,18V13.62H37.07V19.8l-7,7V19.58l5.24-5.24L34,13.05,30.11,17V14.89L34,11,32.73,9.67,30.11,12.3V8.86H28.28V12.3L25.65,9.67,24.36,11l3.92,3.92V17l-3.94-3.94L23,14.34l5.24,5.24v7.18l-7-7V13.62H19.49V18L16.54,15l-1.29,1.29,2.95,2.95H13.83v1.83H20l7,7H19.8l-5.24-5.24-1.29,1.29,3.94,3.94H15.1l-3.92-3.92L9.89,25.43l2.63,2.63H9.08v1.83h3.44Zm0,0"/></g></g></svg>