<svg xmlns="http://www.w3.org/2000/svg" viewBox="0 0 20 20"><defs><style>.cls-1,.cls-2{fill:#e20413;}.cls-1{fill-rule:evenodd;}.cls-3{fill:#fff;}</style></defs><title>Монтажная область 4</title><g id="FAVICON"><path class="cls-1" d="M6,3.05H9V16.39H6Zm12,5v9.24H2V8.07L5.66,5.6V2.69H9.34v.44L10,2.69Z"/><path class="cls-2" d="M6.38,14.38l1.81,1.19a.23.23,0,0,0,.36-.19h0V13a.23.23,0,0,0-.37-.19L6.37,14a.23.23,0,0,0,0,.39"/><path class="cls-3" d="M5.6,14.38,3.79,15.57a.23.23,0,0,1-.36-.19h0V13a.23.23,0,0,1,.37-.19L5.6,14a.23.23,0,0,1,0,.39"/><path class="cls-3" d="M15.27,14.38l1.81,1.19a.23.23,0,0,0,.36-.19h0V13a.23.23,0,0,0-.37-.19L15.26,14a.23.23,0,0,0,0,.39"/><path class="cls-3" d="M14.49,14.38l-1.81,1.19a.23.23,0,0,1-.36-.19h0V13a.23.23,0,0,1,.37-.19L14.49,14a.23.23,0,0,1,0,.39"/><path class="cls-3" d="M9.62,14.38l1.81,1.19a.23.23,0,0,0,.36-.19h0V13a.23.23,0,0,0-.37-.19L9.61,14a.23.23,0,0,0,0,.39"/><path class="cls-3" d="M17,8.76v2.31a.23.23,0,0,1-.26.26H15.47a1,1,0,0,1-1-1V8.76a.26.26,0,1,1,.52,0v1.53a.5.5,0,0,0,.15.37.51.51,0,0,0,.37.15h1.05v-2a.26.26,0,1,1,.52,0"/><path class="cls-3" d="M10,8.5h2.34a1,1,0,0,1,1,1v1.52a.26.26,0,1,1-.52,0V9.54A.51.51,0,0,0,12.34,9h-.52v2a.26.26,0,1,1-.52,0V9h-1v2a.26.26,0,1,1-.52,0V8.76A.23.23,0,0,1,10,8.5"/><path class="cls-2" d="M8.79,8.76v2.31a.23.23,0,0,1-.26.26H7.23a1,1,0,0,1-1-1V8.76a.26.26,0,1,1,.52,0v1.53a.5.5,0,0,0,.15.37.51.51,0,0,0,.37.15H8.28v-2a.26.26,0,1,1,.52,0"/><path class="cls-3" d="M3.49,9.54v.75a.53.53,0,0,0,.52.52H4.8a.26.26,0,1,1,0,.52H4a1,1,0,0,1-1-1V9.54a1,1,0,0,1,1-1H4.8A.26.26,0,1,1,4.8,9H4a.52.52,0,0,0-.52.52"/></g></svg>