<svg xmlns="http://www.w3.org/2000/svg" viewBox="0 0 46.95 42.79"><defs><style>.cls-1,.cls-2{fill:#e20413;}.cls-1{fill-rule:evenodd;}.cls-3{fill:#fff;}</style></defs><title>Ресурс 54</title><g id="Слой_2" data-name="Слой 2"><g id="_1280" data-name="1280"><g id="header"><path class="cls-1" d="M11.85,1.07h8.62v39H11.85ZM47,15.75v27H0v-27L10.78,8.52V0H21.54V1.3L23.48,0Z"/><path class="cls-2" d="M12.87,34.22l5.3,3.47a.68.68,0,0,0,1.05-.57h0v-7a.68.68,0,0,0-1.08-.55l-5.28,3.46a.68.68,0,0,0,0,1.14"/><path class="cls-3" d="M10.6,34.22,5.3,37.69a.68.68,0,0,1-1.05-.57h0v-7a.68.68,0,0,1,1.08-.55l5.28,3.46a.68.68,0,0,1,0,1.14"/><path class="cls-3" d="M38.89,34.22l5.3,3.47a.68.68,0,0,0,1.05-.57h0v-7a.68.68,0,0,0-1.08-.55l-5.28,3.46a.68.68,0,0,0,0,1.14"/><path class="cls-3" d="M36.61,34.22l-5.3,3.47a.68.68,0,0,1-1.05-.57h0v-7a.68.68,0,0,1,1.08-.55l5.28,3.46a.68.68,0,0,1,0,1.14"/><path class="cls-3" d="M22.35,34.22l5.3,3.47a.68.68,0,0,0,1.05-.57h0v-7a.68.68,0,0,0-1.08-.55l-5.28,3.46a.68.68,0,0,0,0,1.14"/><path class="cls-3" d="M44.07,17.77v6.75a.67.67,0,0,1-.76.76H39.49a3,3,0,0,1-3.05-3V17.77a.76.76,0,1,1,1.51,0v4.47a1.46,1.46,0,0,0,.45,1.08,1.49,1.49,0,0,0,1.08.45h3.07v-6a.76.76,0,1,1,1.51,0"/><path class="cls-3" d="M23.47,17h6.84a3,3,0,0,1,3,3v4.46a.76.76,0,1,1-1.51,0V20.05a1.49,1.49,0,0,0-1.53-1.53H28.79v6a.76.76,0,1,1-1.51,0v-6H24.23v6a.76.76,0,1,1-1.51,0V17.77a.67.67,0,0,1,.76-.76"/><path class="cls-2" d="M19.95,17.77v6.75a.67.67,0,0,1-.76.76H15.36a3,3,0,0,1-3.05-3V17.77a.67.67,0,0,1,.76-.76.67.67,0,0,1,.76.76v4.47a1.46,1.46,0,0,0,.45,1.08,1.49,1.49,0,0,0,1.08.45h3.07v-6a.76.76,0,1,1,1.51,0"/><path class="cls-3" d="M4.44,20.06v2.18A1.54,1.54,0,0,0,6,23.77H8.25a.76.76,0,1,1,0,1.51H6a3,3,0,0,1-3-3V20.06a3,3,0,0,1,3-3H8.25a.67.67,0,0,1,.76.76.67.67,0,0,1-.76.76H6a1.52,1.52,0,0,0-1.53,1.53"/></g></g></g></svg>